<?xml version="1.0" encoding="UTF-8" standalone="no"?>
<!DOCTYPE svg PUBLIC "-//W3C//DTD SVG 1.1//EN"
 "http://www.w3.org/Graphics/SVG/1.1/DTD/svg11.dtd">
<!-- Generated by graphviz version 2.38.0 (20140413.2041)
 -->
<!-- Title: models_diagram Pages: 1 -->
<svg width="517pt" height="288pt"
 viewBox="0.00 0.00 517.19 288.00" xmlns="http://www.w3.org/2000/svg" xmlns:xlink="http://www.w3.org/1999/xlink">
<g id="graph0" class="graph" transform="scale(1 1) rotate(0) translate(4 284)">
<title>models_diagram</title>
<polygon fill="none" stroke="none" points="-4,4 -4,-284 513.193,-284 513.193,4 -4,4"/>
<!-- _diagram_info -->
<g id="node1" class="node"><title>_diagram_info</title>
<text text-anchor="start" x="8" y="-251.6" font-family="Times,serif" font-size="13.00">Models diagram</text>
<text text-anchor="start" x="8" y="-238.6" font-family="Times,serif" font-size="13.00">Date: Oct 28 2016 &#45; 20:38</text>
<text text-anchor="start" x="8" y="-225.6" font-family="Times,serif" font-size="13.00">Migration version: 20161028231259</text>
<text text-anchor="start" x="8" y="-212.6" font-family="Times,serif" font-size="13.00">Generated by RailRoady 1.5.2</text>
<text text-anchor="start" x="8" y="-199.6" font-family="Times,serif" font-size="13.00">http://railroady.prestonlee.com</text>
</g>
<!-- Category -->
<g id="node2" class="node"><title>Category</title>
<path fill="none" stroke="black" d="M237.182,-186.5C237.182,-186.5 346.193,-186.5 346.193,-186.5 352.193,-186.5 358.193,-192.5 358.193,-198.5 358.193,-198.5 358.193,-260.5 358.193,-260.5 358.193,-266.5 352.193,-272.5 346.193,-272.5 346.193,-272.5 237.182,-272.5 237.182,-272.5 231.182,-272.5 225.182,-266.5 225.182,-260.5 225.182,-260.5 225.182,-198.5 225.182,-198.5 225.182,-192.5 231.182,-186.5 237.182,-186.5"/>
<text text-anchor="middle" x="291.688" y="-257.3" font-family="Times,serif" font-size="14.00">Category</text>
<polyline fill="none" stroke="black" points="225.182,-250.5 358.193,-250.5 "/>
<text text-anchor="start" x="233.182" y="-235.3" font-family="Times,serif" font-size="14.00">id :INTEGER</text>
<text text-anchor="start" x="233.182" y="-221.3" font-family="Times,serif" font-size="14.00">name :varchar</text>
<text text-anchor="start" x="233.182" y="-207.3" font-family="Times,serif" font-size="14.00">created_at :datetime</text>
<text text-anchor="start" x="233.182" y="-193.3" font-family="Times,serif" font-size="14.00">updated_at :datetime</text>
</g>
<!-- Item -->
<g id="node3" class="node"><title>Item</title>
<path fill="none" stroke="black" d="M312.182,-0.5C312.182,-0.5 421.193,-0.5 421.193,-0.5 427.193,-0.5 433.193,-6.5 433.193,-12.5 433.193,-12.5 433.193,-130.5 433.193,-130.5 433.193,-136.5 427.193,-142.5 421.193,-142.5 421.193,-142.5 312.182,-142.5 312.182,-142.5 306.182,-142.5 300.182,-136.5 300.182,-130.5 300.182,-130.5 300.182,-12.5 300.182,-12.5 300.182,-6.5 306.182,-0.5 312.182,-0.5"/>
<text text-anchor="middle" x="366.688" y="-127.3" font-family="Times,serif" font-size="14.00">Item</text>
<polyline fill="none" stroke="black" points="300.182,-120.5 433.193,-120.5 "/>
<text text-anchor="start" x="308.182" y="-105.3" font-family="Times,serif" font-size="14.00">updated_at :datetime</text>
<text text-anchor="start" x="308.182" y="-91.3" font-family="Times,serif" font-size="14.00">n_serie :integer</text>
<text text-anchor="start" x="308.182" y="-77.3" font-family="Times,serif" font-size="14.00">description :text</text>
<text text-anchor="start" x="308.182" y="-63.3" font-family="Times,serif" font-size="14.00">category :varchar</text>
<text text-anchor="start" x="308.182" y="-49.3" font-family="Times,serif" font-size="14.00">user_id :integer</text>
<text text-anchor="start" x="308.182" y="-35.3" font-family="Times,serif" font-size="14.00">category_id :integer</text>
<text text-anchor="start" x="308.182" y="-21.3" font-family="Times,serif" font-size="14.00">created_at :datetime</text>
<text text-anchor="start" x="308.182" y="-7.3" font-family="Times,serif" font-size="14.00">id :INTEGER</text>
</g>
<!-- Category&#45;&gt;Item -->
<g id="edge1" class="edge"><title>Category&#45;&gt;Item</title>
<path fill="none" stroke="#63258d" d="M315.546,-178.874C319.695,-170.245 324.101,-161.08 328.52,-151.889"/>
<ellipse fill="none" stroke="#63258d" cx="313.717" cy="-182.679" rx="4.00002" ry="4.00002"/>
<polygon fill="#63258d" stroke="#63258d" points="328.6,-151.722 336.989,-144.659 330.767,-147.215 332.933,-142.709 332.933,-142.709 332.933,-142.709 330.767,-147.215 328.878,-140.759 328.6,-151.722 328.6,-151.722"/>
</g>
<!-- User -->
<g id="node4" class="node"><title>User</title>
<path fill="none" stroke="black" d="M388.182,-179.5C388.182,-179.5 497.193,-179.5 497.193,-179.5 503.193,-179.5 509.193,-185.5 509.193,-191.5 509.193,-191.5 509.193,-267.5 509.193,-267.5 509.193,-273.5 503.193,-279.5 497.193,-279.5 497.193,-279.5 388.182,-279.5 388.182,-279.5 382.182,-279.5 376.182,-273.5 376.182,-267.5 376.182,-267.5 376.182,-191.5 376.182,-191.5 376.182,-185.5 382.182,-179.5 388.182,-179.5"/>
<text text-anchor="middle" x="442.688" y="-264.3" font-family="Times,serif" font-size="14.00">User</text>
<polyline fill="none" stroke="black" points="376.182,-257.5 509.193,-257.5 "/>
<text text-anchor="start" x="384.182" y="-242.3" font-family="Times,serif" font-size="14.00">id :INTEGER</text>
<text text-anchor="start" x="384.182" y="-228.3" font-family="Times,serif" font-size="14.00">name :varchar</text>
<text text-anchor="start" x="384.182" y="-214.3" font-family="Times,serif" font-size="14.00">email :varchar</text>
<text text-anchor="start" x="384.182" y="-200.3" font-family="Times,serif" font-size="14.00">created_at :datetime</text>
<text text-anchor="start" x="384.182" y="-186.3" font-family="Times,serif" font-size="14.00">updated_at :datetime</text>
</g>
<!-- User&#45;&gt;Item -->
<g id="edge2" class="edge"><title>User&#45;&gt;Item</title>
<path fill="none" stroke="#94b5b2" d="M415.005,-171.678C411.843,-165.188 408.579,-158.487 405.308,-151.773"/>
<ellipse fill="none" stroke="#94b5b2" cx="416.889" cy="-175.545" rx="4.00002" ry="4.00002"/>
<polygon fill="#94b5b2" stroke="#94b5b2" points="405.232,-151.618 404.898,-140.657 403.043,-147.123 400.853,-142.628 400.853,-142.628 400.853,-142.628 403.043,-147.123 396.807,-144.599 405.232,-151.618 405.232,-151.618"/>
</g>
</g>
</svg>
