<?xml version="1.0" encoding="UTF-8" standalone="no"?>
<!DOCTYPE svg PUBLIC "-//W3C//DTD SVG 1.1//EN"
 "http://www.w3.org/Graphics/SVG/1.1/DTD/svg11.dtd">
<!-- Generated by graphviz version 2.38.0 (20140413.2041)
 -->
<!-- Title: models_diagram Pages: 1 -->
<svg width="391pt" height="153pt"
 viewBox="0.00 0.00 390.69 153.00" xmlns="http://www.w3.org/2000/svg" xmlns:xlink="http://www.w3.org/1999/xlink">
<g id="graph0" class="graph" transform="scale(1 1) rotate(0) translate(4 149)">
<title>models_diagram</title>
<polygon fill="none" stroke="none" points="-4,4 -4,-149 386.688,-149 386.688,4 -4,4"/>
<!-- _diagram_info -->
<g id="node1" class="node"><title>_diagram_info</title>
<text text-anchor="start" x="8" y="-130.6" font-family="Times,serif" font-size="13.00">Models diagram</text>
<text text-anchor="start" x="8" y="-117.6" font-family="Times,serif" font-size="13.00">Date: Oct 28 2016 &#45; 20:38</text>
<text text-anchor="start" x="8" y="-104.6" font-family="Times,serif" font-size="13.00">Migration version: 20161028231259</text>
<text text-anchor="start" x="8" y="-91.6" font-family="Times,serif" font-size="13.00">Generated by RailRoady 1.5.2</text>
<text text-anchor="start" x="8" y="-78.6" font-family="Times,serif" font-size="13.00">http://railroady.prestonlee.com</text>
</g>
<!-- Category -->
<g id="node2" class="node"><title>Category</title>
<ellipse fill="none" stroke="black" cx="267.688" cy="-108.5" rx="42.5456" ry="18"/>
<text text-anchor="middle" x="267.688" y="-104.3" font-family="Times,serif" font-size="14.00">Category</text>
</g>
<!-- Item -->
<g id="node3" class="node"><title>Item</title>
<ellipse fill="none" stroke="black" cx="311.688" cy="-18" rx="27" ry="18"/>
<text text-anchor="middle" x="311.688" y="-13.8" font-family="Times,serif" font-size="14.00">Item</text>
</g>
<!-- Category&#45;&gt;Item -->
<g id="edge1" class="edge"><title>Category&#45;&gt;Item</title>
<path fill="none" stroke="#61281f" d="M279.911,-82.9151C285.855,-70.9588 292.995,-56.598 299,-44.5201"/>
<ellipse fill="none" stroke="#61281f" cx="277.952" cy="-86.8546" rx="4.00002" ry="4.00002"/>
<polygon fill="#61281f" stroke="#61281f" points="299.076,-44.3673 307.557,-37.4163 301.302,-39.8901 303.528,-35.4129 303.528,-35.4129 303.528,-35.4129 301.302,-39.8901 299.498,-33.4095 299.076,-44.3673 299.076,-44.3673"/>
</g>
<!-- User -->
<g id="node4" class="node"><title>User</title>
<ellipse fill="none" stroke="black" cx="355.688" cy="-108.5" rx="27" ry="18"/>
<text text-anchor="middle" x="355.688" y="-104.3" font-family="Times,serif" font-size="14.00">User</text>
</g>
<!-- User&#45;&gt;Item -->
<g id="edge2" class="edge"><title>User&#45;&gt;Item</title>
<path fill="none" stroke="#c2f11e" d="M343.862,-83.7147C337.871,-71.6639 330.588,-57.0162 324.468,-44.7061"/>
<ellipse fill="none" stroke="#c2f11e" cx="345.837" cy="-87.686" rx="4.00002" ry="4.00002"/>
<polygon fill="#c2f11e" stroke="#c2f11e" points="324.308,-44.3834 323.885,-33.4257 322.082,-39.9063 319.856,-35.4291 319.856,-35.4291 319.856,-35.4291 322.082,-39.9063 315.826,-37.4324 324.308,-44.3834 324.308,-44.3834"/>
</g>
</g>
</svg>
